<svg id="Capa_1" enable-background="new 0 0 512 512" height="512" viewBox="0 0 512 512" width="512" xmlns="http://www.w3.org/2000/svg"><path d="m176.723 183.365c-4.15 0-7.515 3.364-7.515 7.515v40.907c0 4.151 3.365 7.515 7.515 7.515s7.515-3.364 7.515-7.515v-40.907c-.001-4.151-3.365-7.515-7.515-7.515z"/><path d="m484.809 411.058c-25.729-35.299-58.852-52.459-101.262-52.459-3.8 0-7.002 2.837-7.46 6.609-.047.388-.254 2.243-.348 5.265-7.579-4.167-15.194-8.051-22.793-11.618 28.288-29.103 48.401-66.449 57.253-106.428 7.313-2.247 12.392-9.069 12.392-16.746v-48.693c0-6.491-3.632-12.367-9.171-15.39-8.565-64.833-42.828-111.622-94.055-132.162-5.749-22.779-31.996-39.436-63.365-39.436-31.34 0-57.569 16.626-63.35 39.373-21.305 8.528-39.83 21.695-54.919 39.232-2.707 3.146-2.351 7.89.795 10.598 3.146 2.705 7.891 2.348 10.597-.796 25.637-29.796 62.595-45.546 106.877-45.546 39.429 0 73.48 12.68 98.472 36.67 22.305 21.411 37.056 51.361 43.014 87.107l-136.728-38.559c-3.112-.877-6.402-.877-9.517 0l-136.702 38.552c3.366-20.26 9.516-38.633 18.36-54.731 1.999-3.637.67-8.206-2.968-10.204-3.638-1.999-8.206-.669-10.205 2.968-10.744 19.557-17.841 42.052-21.128 66.924-5.549 3.02-9.189 8.902-9.189 15.4v48.693c0 7.677 5.078 14.499 12.392 16.747 8.852 39.979 28.964 77.325 57.253 106.428-7.6 3.567-15.217 7.447-22.798 11.618-.092-3.063-.301-4.92-.343-5.265-.458-3.772-3.66-6.609-7.46-6.609-42.41 0-75.533 17.16-101.262 52.459-26.884 36.884-27.191 91.136-27.191 93.426 0 4.089 3.425 7.515 7.515 7.515h496.971c2.071 0 4.091-.889 5.496-2.402 1.281-1.376 2.018-3.231 2.018-5.113 0-2.29-.307-56.542-27.191-93.427zm-228.809-383.226c-15.393 0-29.997 1.752-43.679 5.186 8.413-10.703 25.022-17.989 43.679-17.989 18.691 0 35.327 7.313 43.725 18.048-13.651-3.45-28.267-5.245-43.725-5.245zm-137.607 229.291 132.846 37.463c3.098.876 6.422.876 9.52.001l50.741-14.309c3.995-1.127 6.319-5.278 5.193-9.272-1.126-3.995-5.278-6.317-9.272-5.194l-50.742 14.31c-.445.125-.913.126-1.359-.001l-149.057-42.034c-1.074-.303-1.824-1.294-1.824-2.407v-48.693c0-1.115.749-2.104 1.823-2.406l149.056-42.036c.446-.126.918-.126 1.362 0l149.058 42.036c1.073.302 1.823 1.292 1.823 2.406v48.693c0 1.114-.75 2.104-1.823 2.406l-69.396 19.57c-3.995 1.126-6.32 5.278-5.193 9.272 1.127 3.995 5.282 6.318 9.272 5.194l53.186-14.999c-22.282 84.985-93.42 136.646-137.607 136.646s-115.325-51.661-137.607-136.646zm89.427 239.848c9.717-17.082 27.96-27.984 48.18-27.984s38.463 10.902 48.18 27.984zm113.091 0c-10.951-25.94-36.383-43.014-64.911-43.014-28.527 0-53.96 17.074-64.91 43.014h-17.747c5.181-15.547 14.744-29.517 27.563-39.997 15.484-12.66 35.05-19.631 55.094-19.631s39.61 6.972 55.094 19.631c12.819 10.48 22.382 24.45 27.562 39.997zm33.454 0c-5.626-20.131-17.446-38.295-33.758-51.632-18.161-14.848-41.106-23.025-64.607-23.025s-46.446 8.177-64.607 23.025c-16.313 13.337-28.133 31.501-33.758 51.632h-105.185c11.837-5.516 24.483-12.796 35.709-22.207 3.181-2.666 3.597-7.406.931-10.586s-7.405-3.597-10.587-.93c-21.108 17.696-48.685 27.32-62.976 31.428 1.322-16.543 6.156-50.543 23.811-74.764 21.211-29.102 48.056-44.229 81.892-46.087-.114 12.688-2.937 41.123-23.34 68.682-2.47 3.336-1.767 8.042 1.569 10.512 3.335 2.47 8.042 1.766 10.511-1.569 17.15-23.166 23.323-46.602 25.383-63.195 11.744-6.819 23.62-12.94 35.41-18.241 27.688 24.396 59.126 38.785 85.237 38.785s57.549-14.39 85.237-38.785c11.781 5.297 23.648 11.411 35.383 18.223 2.576 20.945 11.698 52.78 41.205 81.133 12.572 12.08 27.707 21.074 41.713 27.602h-105.173zm73.874-38.44c-33.267-31.966-37.31-69.577-37.463-84.707 33.833 1.86 60.677 16.987 81.887 46.087 17.61 24.159 22.464 58.209 23.801 74.77-15.498-4.446-46.608-15.378-68.225-36.15z"/><path d="m256 165.338c-4.15 0-7.515 3.364-7.515 7.515v76.962c0 4.151 3.365 7.515 7.515 7.515s7.515-3.364 7.515-7.515v-76.962c0-4.151-3.365-7.515-7.515-7.515z"/><path d="m216.361 174.351c-4.15 0-7.515 3.364-7.515 7.515v58.934c0 4.151 3.365 7.515 7.515 7.515s7.515-3.364 7.515-7.515v-58.934c0-4.151-3.364-7.515-7.515-7.515z"/><path d="m137.084 192.379c-4.15 0-7.515 3.364-7.515 7.515v22.881c0 4.151 3.365 7.515 7.515 7.515s7.515-3.364 7.515-7.515v-22.881c0-4.151-3.365-7.515-7.515-7.515z"/><path d="m295.638 174.351c-4.15 0-7.515 3.364-7.515 7.515v58.934c0 4.151 3.365 7.515 7.515 7.515s7.515-3.364 7.515-7.515v-58.934c0-4.151-3.364-7.515-7.515-7.515z"/><path d="m335.277 239.301c4.15 0 7.515-3.364 7.515-7.515v-40.906c0-4.151-3.365-7.515-7.515-7.515s-7.515 3.364-7.515 7.515v40.907c.001 4.15 3.365 7.514 7.515 7.514z"/><path d="m374.916 230.289c4.15 0 7.515-3.364 7.515-7.515v-22.881c0-4.151-3.364-7.515-7.515-7.515-4.15 0-7.515 3.364-7.515 7.515v22.881c0 4.151 3.365 7.515 7.515 7.515z"/></svg>